<!--
  ZA Character System — placeholder production asset.
  Garment: Scrub Set 01 · Variant: Pink
  Authored once against the shared character rig (viewBox 200x320, same
  5:8 aspect as the 1000x1600 production canvas) — aligns on any of the
  10 character bases without adjustment. One file per colour: never a
  CSS filter recolor of a shared asset.
-->
<svg viewBox="0 0 200 320" xmlns="http://www.w3.org/2000/svg" role="img" aria-label="Scrub Set 01, pink">
  <path d="M76 62 L100 78 L124 62 C133 70 136 82 132 92 L146 100 138 116 128 108 C133 128 133 145 122 152 L78 152 C67 145 67 128 72 108 L62 116 54 100 68 92 C64 82 67 70 76 62 Z" fill="#C96B82" />
  <path d="M76 62 L100 78 L100 152 L78 152 C67 145 67 128 72 108 L62 116 54 100 68 92 C64 82 67 70 76 62 Z" fill="#000000" opacity="0.06" />
  <rect x="86" y="98" width="14" height="16" rx="2" fill="#00000022" />
  <path d="M78 155 L122 155 L124 200 L120 300 L106 300 L104 210 L96 210 L94 300 L80 300 L76 200 Z" fill="#C96B82" />
  <path d="M78 155 L100 155 L98 300 L94 300 L76 200 Z" fill="#000000" opacity="0.06" />
</svg>
